<?xml version="1.0" standalone="no"?>
<!DOCTYPE svg PUBLIC "-//W3C//DTD SVG 20010904//EN"
 "http://www.w3.org/TR/2001/REC-SVG-20010904/DTD/svg10.dtd">
<svg version="1.0" xmlns="http://www.w3.org/2000/svg"
 width="331.000000pt" height="331.000000pt" viewBox="0 0 331.000000 331.000000"
 preserveAspectRatio="xMidYMid meet">
<metadata>
Created by potrace 1.14, written by Peter Selinger 2001-2017
</metadata>
<g transform="translate(0.000000,331.000000) scale(0.100000,-0.100000)"
fill="#000000" stroke="none">
<path d="M1327 3174 c-1 -1 -45 -5 -97 -9 -52 -4 -113 -9 -135 -11 -57 -4
-402 -4 -455 0 -25 3 -116 8 -203 11 l-158 8 5 -73 c3 -40 7 -74 9 -76 2 -2
34 -6 73 -9 146 -11 254 -24 266 -31 3 -2 7 -48 7 -102 0 -53 3 -113 6 -132
12 -82 23 -1802 13 -2110 -5 -178 -17 -237 -56 -275 -51 -51 -119 -17 -189 93
-64 100 -128 145 -203 145 -111 0 -200 -92 -201 -209 -2 -107 85 -224 192
-259 119 -40 319 -3 464 84 41 25 146 110 179 146 70 75 189 299 220 413 19
68 20 73 31 142 4 25 9 53 11 64 2 10 6 51 9 90 3 39 8 91 10 116 2 25 4 205
5 400 1 397 -5 377 64 220 16 -36 53 -116 82 -179 30 -62 54 -115 54 -116 0
-1 26 -58 59 -126 55 -117 81 -183 150 -374 l28 -80 65 -3 65 -3 16 38 c8 21
31 85 50 143 20 58 63 173 97 255 33 83 62 155 64 160 1 6 22 51 45 100 24 50
58 126 77 169 19 44 41 94 49 110 14 30 115 264 273 628 42 98 77 176 78 175
4 -4 14 -144 19 -282 4 -77 8 -169 10 -205 16 -278 25 -997 12 -1042 -9 -35
-64 -64 -137 -73 -30 -4 -64 -12 -75 -18 -11 -6 -21 -9 -23 -8 -1 1 -16 0 -32
-4 -24 -5 -30 -12 -31 -33 0 -15 -2 -44 -3 -64 -2 -21 0 -36 3 -34 43 26 895
27 941 2 3 -2 44 -6 92 -10 l87 -7 -2 58 -2 58 -100 31 c-55 17 -107 33 -115
37 -8 3 -32 11 -53 17 -48 15 -53 28 -62 165 -4 61 -9 133 -11 160 -2 28 -5
118 -8 200 -18 493 -28 729 -41 925 -16 248 -16 302 -1 324 21 33 107 71 218
98 106 24 104 23 103 103 l0 50 -80 -2 c-44 0 -127 -4 -185 -7 -58 -3 -190 -8
-294 -11 -104 -3 -197 -10 -206 -15 -24 -13 -84 -138 -192 -400 -119 -287
-187 -447 -217 -513 -17 -37 -31 -69 -31 -71 0 -2 -31 -68 -68 -147 -38 -79
-81 -171 -97 -204 -15 -33 -38 -82 -50 -109 l-23 -48 -42 88 c-56 118 -95 201
-113 244 -9 19 -41 88 -71 154 -31 65 -56 120 -56 122 0 3 -29 65 -108 234
-75 162 -102 222 -102 229 0 4 -6 21 -14 37 -33 67 -126 277 -124 279 2 1 46
5 98 8 105 7 139 12 152 25 5 5 8 33 6 63 l-3 54 -43 6 c-23 3 -43 4 -45 3z"/>
</g>
</svg>
